# xmcd CD database file
#
# Track frame offsets:
#	210
#	14698
#	26655
#	40174
#	55429
#	67335
#	78348
#	91468
#	106041
#	117100
#	127979
#	140503
#	152766
#	161286
#	170804
#	185982
#	200290
#	214288
#	227922
#	238640
#	250678
#	261386
#	276158
#
# Disc length: 3868 seconds
#
# Revision: 0
# Processed by: cddbd v1.5PL3 Copyright (c) Steve Scherf et al.
# Submitted via: CDex 1.51
#
DISCID=520f1a17
DTITLE=The Dixon Brothers - Dixon Brothers, Vol. 2: 1937
DYEAR=1900
DGENRE=Country
TTITLE0=Answer to Maple on the Hill, Pt. 4
TTITLE1=Beautiful Stars
TTITLE2=I Will Meet My Precious
TTITLE3=Weaver's Life
TTITLE4=Darling Do You Miss Me
TTITLE5=Little Bessie
TTITLE6=How Can a Broke Man Be Happy
TTITLE7=The School House Fire
TTITLE8=She Tickles Me
TTITLE9=Fisherman's Luck
TTITLE10=At Twilight Old Pal of Yesterday
TTITLE11=Call Me Pal of Mine
TTITLE12=Bless His Promise
TTITLE13=The Well of Jacob - Jesus Said
TTITLE14=I Won't Accept Anything for My Soul
TTITLE15=What Can I Give in Exchange
TTITLE16=What Would You Give in Exchange, Pt. 5
TTITLE17=The Girl I Left in Danville
TTITLE18=Two Little Boys
TTITLE19=The Lonely Prisoner
TTITLE20=The Old Home Brew
TTITLE21=Always Waiting for You
TTITLE22=When Jesus Appeared
EXTD=
EXTT0=
EXTT1=
EXTT2=
EXTT3=
EXTT4=
EXTT5=
EXTT6=
EXTT7=
EXTT8=
EXTT9=
EXTT10=
EXTT11=
EXTT12=
EXTT13=
EXTT14=
EXTT15=
EXTT16=
EXTT17=
EXTT18=
EXTT19=
EXTT20=
EXTT21=
EXTT22=
PLAYORDER=
